+15_US_stride6.mot
nRows=127
nColumns=3

name +15_US_stride6.mot
datacolumns 3
datarows 127
range 2.710000 3.340000
endheader
time	soleus_l	med_gas_l
        2.7100000000	       32.1600375152	       32.4667224829	
        2.7150000000	       31.8407163749	       32.5048697772	
        2.7200000000	       31.5799827684	       32.5392752693	
        2.7250000000	       31.3812859804	       32.5256401224	
        2.7300000000	       31.2516244990	       32.4301998982	
        2.7350000000	       31.1919310792	       32.2495027437	
        2.7400000000	       31.1795456759	       32.0737533830	
        2.7450000000	       31.1893565253	       31.8466102736	
        2.7500000000	       31.2213225250	       31.6128412331	
        2.7550000000	       31.2402161408	       31.4418587771	
        2.7600000000	       31.2329330159	       31.3299970998	
        2.7650000000	       31.1882123193	       31.2614647210	
        2.7700000000	       31.1378996746	       31.2105255347	
        2.7750000000	       31.0856356337	       31.1510229622	
        2.7800000000	       31.0314324016	       31.0256244557	
        2.7850000000	       31.0240915198	       30.8583083648	
        2.7900000000	       31.0533362031	       30.6528721961	
        2.7950000000	       31.1043688502	       30.4768362511	
        2.8000000000	       31.1529382741	       30.3279263852	
        2.8050000000	       31.1960172063	       30.1562451830	
        2.8100000000	       31.1756460330	       30.0139987429	
        2.8150000000	       31.0849612836	       29.8881849029	
        2.8200000000	       30.8872018463	       29.7569870853	
        2.8250000000	       30.6124878602	       29.6091959565	
        2.8300000000	       30.3522850674	       29.4674317546	
        2.8350000000	       29.9991206097	       29.2564080868	
        2.8400000000	       29.5904767073	       28.9739259552	
        2.8450000000	       29.2288118707	       28.6684255490	
        2.8500000000	       28.9431296269	       28.3587179480	
        2.8550000000	       28.7539900310	       28.0688468786	
        2.8600000000	       28.6745677823	       27.8782755441	
        2.8650000000	       28.6179525194	       27.7199999186	
        2.8700000000	       28.5510129416	       27.5593381393	
        2.8750000000	       28.4124023184	       27.4319549431	
        2.8800000000	       28.1420675319	       27.2933415588	
        2.8850000000	       27.6993997147	       27.1124673601	
        2.8900000000	       27.1793626780	       26.9066027841	
        2.8950000000	       26.6870228290	       26.7054312431	
        2.9000000000	       25.9741130986	       26.4050863135	
        2.9050000000	       25.2235258578	       26.0871240743	
        2.9100000000	       24.5415143520	       25.8095245264	
        2.9150000000	       23.9846221954	       25.6025913072	
        2.9200000000	       23.6357312507	       25.4886837722	
        2.9250000000	       23.2806419906	       25.3889426410	
        2.9300000000	       22.9592228210	       25.3018932883	
        2.9350000000	       22.7012749908	       25.2187917182	
        2.9400000000	       22.4686847536	       25.1114370205	
        2.9450000000	       22.2277043932	       24.9595980414	
        2.9500000000	       22.0662569521	       24.8341167029	
        2.9550000000	       21.9385950818	       24.7077661345	
        2.9600000000	       21.8347112215	       24.5518593496	
        2.9650000000	       21.8537633225	       24.4270534683	
        2.9700000000	       21.9858711737	       24.3253432977	
        2.9750000000	       22.2706742532	       24.2417661560	
        2.9800000000	       22.6110775404	       24.1958652533	
        2.9850000000	       22.9241312442	       24.1768596638	
        2.9900000000	       23.3782697327	       24.2106767503	
        2.9950000000	       23.8668264414	       24.3403997892	
        3.0000000000	       24.2904550649	       24.6096895820	
        3.0050000000	       24.6236919314	       25.0178230597	
        3.0100000000	       24.8542505750	       25.5282659977	
        3.0150000000	       24.9674557261	       25.9567460070	
        3.0200000000	       25.0543272390	       26.4054161489	
        3.0250000000	       25.1401313002	       26.8854810080	
        3.0300000000	       25.2557544133	       27.2600726611	
        3.0350000000	       25.4427463886	       27.4955223465	
        3.0400000000	       25.7206284230	       27.5857014933	
        3.0450000000	       26.0221797950	       27.5902851514	
        3.0500000000	       26.3305497777	       27.5447985146	
        3.0550000000	       26.7827647456	       27.4480327960	
        3.0600000000	       27.2747257715	       27.3359607720	
        3.0650000000	       27.7963295628	       27.2368903877	
        3.0700000000	       28.2757210864	       27.2002135360	
        3.0750000000	       28.6551683751	       27.2031693874	
        3.0800000000	       29.1372610381	       27.2759279845	
        3.0850000000	       29.6391903995	       27.4700242151	
        3.0900000000	       30.1149136394	       27.7690550209	
        3.0950000000	       30.5805574048	       28.1452779018	
        3.1000000000	       31.0588887442	       28.5609146850	
        3.1050000000	       31.4190369991	       28.8565286611	
        3.1100000000	       31.8132696129	       29.1411652039	
        3.1150000000	       32.2870703026	       29.4160740762	
        3.1200000000	       32.7310412375	       29.5956218558	
        3.1250000000	       33.1504185304	       29.6875412877	
        3.1300000000	       33.5854775669	       29.6954171713	
        3.1350000000	       33.9795367695	       29.6874352710	
        3.1400000000	       34.3572049547	       29.6504340643	
        3.1450000000	       34.9351685994	       29.6015345664	
        3.1500000000	       35.5680616117	       29.5609756990	
        3.1550000000	       36.1983449544	       29.5514004876	
        3.1600000000	       36.7786395108	       29.5558387653	
        3.1650000000	       37.2436645265	       29.5925421687	
        3.1700000000	       37.5280027405	       29.6308260563	
        3.1750000000	       37.7914351593	       29.6840691293	
        3.1800000000	       37.9957722822	       29.7463622403	
        3.1850000000	       38.0950884235	       29.8006957446	
        3.1900000000	       38.1178237140	       29.8491027574	
        3.1950000000	       38.0737059532	       29.8865918897	
        3.2000000000	       37.9581741926	       29.9358194331	
        3.2050000000	       37.7063266611	       30.0190327767	
        3.2100000000	       37.3538752641	       30.1358248103	
        3.2150000000	       36.9185994218	       30.2959771065	
        3.2200000000	       36.4520416298	       30.5001584803	
        3.2250000000	       36.1035331981	       30.6935421308	
        3.2300000000	       35.8530967139	       30.8770370254	
        3.2350000000	       35.6097106799	       31.1531304857	
        3.2400000000	       35.4879873469	       31.4618335350	
        3.2450000000	       35.4638865076	       31.7936923887	
        3.2500000000	       35.4624948307	       32.1393787732	
        3.2550000000	       35.4621841844	       32.4565822392	
        3.2600000000	       35.4302387922	       32.6757891771	
        3.2650000000	       35.3655835282	       32.8932828199	
        3.2700000000	       35.2781350968	       33.0665290857	
        3.2750000000	       35.2270955261	       33.1605823052	
        3.2800000000	       35.2474813377	       33.2015493294	
        3.2850000000	       35.3677167659	       33.2223235171	
        3.2900000000	       35.5162660308	       33.2562313330	
        3.2950000000	       35.6817031511	       33.3212806646	
        3.3000000000	       35.8769030375	       33.4804158155	
        3.3050000000	       35.9899341122	       33.7021636860	
        3.3100000000	       35.9790397480	       33.9527639115	
        3.3150000000	       35.9169282756	       34.1322366229	
        3.3200000000	       35.7883037958	       34.2256231014	
        3.3250000000	       35.5683841111	       34.2100383261	
        3.3300000000	       35.2768097261	       34.0727559885	
        3.3350000000	       34.9030375104	       33.7920485389	
        3.3400000000	       34.4311855901	       33.4600766803	
